<svg xmlns="http://www.w3.org/2000/svg" width="32" height="32" viewBox="0 0 24 24" fill="none" stroke="currentColor" stroke-width="2" stroke-linecap="round" stroke-linejoin="round">
  <defs>
    <linearGradient id="docShieldGradient" x1="0%" y1="0%" x2="100%" y2="100%">
      <stop offset="0%" stop-color="#4F46E5" />
      <stop offset="100%" stop-color="#7C3AED" />
    </linearGradient>
  </defs>
  <path d="M14 2H6a2 2 0 0 0-2 2v16a2 2 0 0 0 2 2h12a2 2 0 0 0 2-2V8z" fill="white" stroke="url(#docShieldGradient)" />
  <path d="M14 2v6h6" fill="white" stroke="url(#docShieldGradient)" />
  <path d="M12 18s4-2 4-5v-3l-4-1-4 1v3c0 3 4 5 4 5z" fill="url(#docShieldGradient)" />
  <path d="M10 14l1 1 2-2" stroke="white" stroke-width="1" />
</svg>